<svg xmlns="http://www.w3.org/2000/svg" viewBox="0 0 1500 1500"><defs><style>.cls-1{fill:#001f3f;}</style></defs><g id="Layer_7" data-name="Layer 7"><path class="cls-1" d="M502.37,796.58V717.32H473.85V699h77.8v18.28H523.28v79.26Z"/><path class="cls-1" d="M631.79,796.58v-41H585.72v41H565V699h20.76v38.31h46.07V699H652.7v97.54Z"/><path class="cls-1" d="M671.86,796.58V699h69v17.84H692.63v21.2h47.23v17.84H692.63v22.67h48.26v18Z"/><path class="cls-1" d="M861.39,796.58v-41H815.32v41H794.56V699h20.76v38.31h46.07V699H882.3v97.54Z"/><path class="cls-1" d="M901.46,796.58V699h69v17.84H922.23v21.2h47.23v17.84H922.23v22.67h48.26v18Z"/><path class="cls-1" d="M982,747.88c0-30,22.67-50.45,51.19-50.45,22.23,0,34.66,11.7,41.53,23.84L1056.92,730a26.72,26.72,0,0,0-23.69-14.19c-17,0-29.84,13.6-29.84,32s12.87,32,29.84,32a26.44,26.44,0,0,0,23.69-14.19l17.84,8.63c-7,12.14-19.3,24-41.53,24C1004.71,798.33,982,777.86,982,747.88Z"/><path class="cls-1" d="M1109.71,796.58V717.32H1081.2V699H1159v18.28h-28.38v79.26Z"/><path class="cls-1" d="M1227.44,796.58l-19.16-35h-15.21v35H1172.3V699h45.63c20.33,0,32.76,13.3,32.76,31.44,0,17.25-10.82,26.47-21.35,28.95l21.93,37.15Zm-12.58-79.7h-21.79v26.91h21.79c8.34,0,14.62-5.27,14.62-13.46S1223.2,716.88,1214.86,716.88Z"/><path class="cls-1" d="M1266.34,796.58V699h69v17.84H1287.1v21.2h47.24v17.84H1287.1v22.67h48.26v18Z"/><g id="Key_left" data-name="Key left"><polygon class="cls-1" points="158.05 750 158.05 802.28 158.05 854.56 210.33 854.56 210.33 802.28 210.33 750 210.33 697.72 158.05 697.72 158.05 750"/><polygon class="cls-1" points="210.34 593.16 210.34 645.44 262.62 645.44 262.62 697.72 262.62 750 314.89 750 314.89 697.72 314.89 645.44 314.89 593.16 262.62 593.16 210.34 593.16"/><polygon class="cls-1" points="262.62 854.56 262.62 906.84 314.89 906.84 314.89 854.56 314.89 802.28 262.62 802.28 262.62 854.56"/><polygon class="cls-1" points="367.17 697.72 367.17 750 367.17 802.28 367.17 854.56 419.45 854.56 419.45 802.28 419.45 750 419.45 697.72 367.17 697.72"/></g></g></svg>