<svg xmlns="http://www.w3.org/2000/svg" viewBox="0 0 1500 1500"><defs><style>.cls-1{fill:#001f3f;}</style></defs><g id="BL_W" data-name="BL/W"><path class="cls-1" d="M346.3,977.64V898.37H317.78V880.1h77.8v18.27H367.21v79.27Z"/><path class="cls-1" d="M475.72,977.64V936.69H429.65v40.95H408.89V880.1h20.76v38.31h46.07V880.1h20.91v97.54Z"/><path class="cls-1" d="M515.79,977.64V880.1h69v17.84H536.56v21.2h47.23V937H536.56v22.67h48.26v18Z"/><path class="cls-1" d="M705.32,977.64V936.69H659.25v40.95H638.49V880.1h20.76v38.31h46.07V880.1h20.91v97.54Z"/><path class="cls-1" d="M745.39,977.64V880.1h69v17.84H766.16v21.2h47.23V937H766.16v22.67h48.26v18Z"/><path class="cls-1" d="M826,928.94c0-30,22.67-50.45,51.19-50.45,22.23,0,34.66,11.7,41.53,23.83l-17.84,8.78a26.72,26.72,0,0,0-23.69-14.19c-17,0-29.84,13.6-29.84,32s12.87,32,29.84,32a26.46,26.46,0,0,0,23.69-14.19l17.84,8.63c-7,12.14-19.3,24-41.53,24C848.64,979.39,826,958.92,826,928.94Z"/><path class="cls-1" d="M953.64,977.64V898.37H925.13V880.1h77.8v18.27H974.56v79.27Z"/><path class="cls-1" d="M1071.37,977.64l-19.16-34.95H1037v34.95h-20.76V880.1h45.62c20.33,0,32.76,13.3,32.76,31.44,0,17.25-10.82,26.47-21.35,29l21.93,37.15Zm-12.58-79.7H1037v26.9h21.79c8.34,0,14.63-5.26,14.63-13.45S1067.13,897.94,1058.79,897.94Z"/><path class="cls-1" d="M1110.27,977.64V880.1h69v17.84H1131v21.2h47.23V937H1131v22.67h48.25v18Z"/><g id="Key_left" data-name="Key left"><polygon class="cls-1" points="619.3 650.54 619.3 702.82 619.3 755.09 671.58 755.09 671.58 702.82 671.58 650.54 671.58 598.26 619.3 598.26 619.3 650.54"/><polygon class="cls-1" points="671.58 493.7 671.58 545.98 723.86 545.98 723.86 598.26 723.86 650.54 776.14 650.54 776.14 598.26 776.14 545.98 776.14 493.7 723.86 493.7 671.58 493.7"/><polygon class="cls-1" points="723.86 755.09 723.86 807.37 776.14 807.37 776.14 755.09 776.14 702.82 723.86 702.82 723.86 755.09"/><polygon class="cls-1" points="828.42 598.26 828.42 650.54 828.42 702.82 828.42 755.09 880.7 755.09 880.7 702.82 880.7 650.54 880.7 598.26 828.42 598.26"/></g></g></svg>